<svg width="142" height="58" viewBox="0 0 142 58" fill="none" xmlns="http://www.w3.org/2000/svg">
<rect x="0.732611" y="-1.26892" width="27.2323" height="27.2323" transform="matrix(0.965926 -0.258819 -0.258819 -0.965926 18.3362 44.1989)" stroke="#16181A" style="stroke:#16181A;stroke:color(display-p3 0.0863 0.0941 0.1020);stroke-opacity:1;" stroke-width="2.07214"/>
<rect x="0.732611" y="-1.26892" width="16.2431" height="16.2431" transform="matrix(0.965926 -0.258819 -0.258819 -0.965926 18.3362 44.1989)" stroke="#16181A" style="stroke:#16181A;stroke:color(display-p3 0.0863 0.0941 0.1020);stroke-opacity:1;" stroke-width="2.07214"/>
<path d="M64.3997 37.0955C63.2544 37.0955 62.2531 36.9198 61.3959 36.5685C60.5457 36.2102 59.8747 35.7078 59.3829 35.0614C58.8911 34.415 58.61 33.6596 58.5397 32.7954L58.5292 32.6478H60.8479L60.8584 32.7743C60.9216 33.231 61.1114 33.6315 61.4275 33.9758C61.7437 34.3131 62.1618 34.5766 62.6817 34.7663C63.2087 34.9489 63.813 35.0403 64.4945 35.0403C65.155 35.0403 65.7311 34.9419 66.223 34.7452C66.7218 34.5485 67.1083 34.2744 67.3823 33.9231C67.6634 33.5648 67.8039 33.1502 67.8039 32.6795V32.6689C67.8039 32.0717 67.5826 31.5869 67.1399 31.2145C66.6973 30.8421 65.9735 30.547 64.9688 30.3292L63.3036 29.9814C61.7859 29.6511 60.6687 29.1347 59.952 28.4321C59.2424 27.7224 58.8875 26.8055 58.8875 25.6813V25.6707C58.8946 24.7925 59.1335 24.0231 59.6042 23.3626C60.075 22.7021 60.7249 22.1857 61.554 21.8133C62.3831 21.4409 63.3317 21.2547 64.3997 21.2547C65.4677 21.2547 66.4021 21.4374 67.2031 21.8028C68.0112 22.1681 68.6506 22.6705 69.1213 23.3099C69.5921 23.9423 69.8556 24.6695 69.9118 25.4916L69.9223 25.6497H67.6142L67.5931 25.5126C67.5299 25.063 67.3577 24.6765 67.0767 24.3533C66.7956 24.0231 66.4267 23.7666 65.97 23.5839C65.5133 23.4013 64.9793 23.3099 64.368 23.3099C63.7638 23.3099 63.2298 23.4013 62.766 23.5839C62.3023 23.7666 61.9369 24.0266 61.6699 24.3639C61.41 24.6941 61.28 25.0911 61.28 25.5548V25.5653C61.28 26.1345 61.4978 26.6052 61.9334 26.9776C62.3761 27.343 63.0822 27.6276 64.0519 27.8313L65.7065 28.1897C66.7605 28.4145 67.6177 28.7131 68.2782 29.0855C68.9386 29.4579 69.4235 29.9216 69.7326 30.4767C70.0418 31.0248 70.1963 31.6817 70.1963 32.4476V32.4581C70.1963 33.4067 69.961 34.2288 69.4902 34.9244C69.0194 35.62 68.3484 36.1575 67.4772 36.5369C66.6129 36.9093 65.5871 37.0955 64.3997 37.0955ZM71.7149 40.5313V25.5021H74.0019V27.3465H74.1179C74.3427 26.9179 74.6237 26.5525 74.961 26.2504C75.3053 25.9413 75.7023 25.7059 76.152 25.5443C76.6016 25.3756 77.09 25.2913 77.6169 25.2913C78.5725 25.2913 79.4016 25.5302 80.1042 26.008C80.8069 26.4858 81.3479 27.1638 81.7273 28.0421C82.1138 28.9134 82.307 29.9427 82.307 31.1302V31.1512C82.307 32.3457 82.1138 33.3786 81.7273 34.2498C81.3479 35.1211 80.8069 35.7956 80.1042 36.2734C79.4086 36.7512 78.5831 36.9901 77.6275 36.9901C77.1075 36.9901 76.6192 36.9058 76.1625 36.7371C75.7128 36.5685 75.3123 36.3331 74.961 36.031C74.6167 35.7218 74.3357 35.36 74.1179 34.9454H74.0019V40.5313H71.7149ZM76.9846 35.0192C77.6099 35.0192 78.1439 34.8646 78.5866 34.5555C79.0363 34.2393 79.3805 33.7931 79.6194 33.217C79.8583 32.6338 79.9778 31.9452 79.9778 31.1512V31.1302C79.9778 30.3292 79.8548 29.6406 79.6089 29.0644C79.37 28.4813 79.0292 28.0351 78.5866 27.7259C78.1439 27.4168 77.6099 27.2622 76.9846 27.2622C76.3803 27.2622 75.8498 27.4203 75.3931 27.7365C74.9434 28.0456 74.5956 28.4918 74.3497 29.075C74.1038 29.6511 73.9808 30.3362 73.9808 31.1302V31.1512C73.9808 31.9382 74.1038 32.6232 74.3497 33.2064C74.6027 33.7826 74.954 34.2288 75.4037 34.5449C75.8533 34.8611 76.3803 35.0192 76.9846 35.0192ZM86.9241 36.9795C86.1934 36.9795 85.5469 36.839 84.9848 36.558C84.4227 36.2769 83.9801 35.8834 83.6569 35.3776C83.3337 34.8646 83.1721 34.2709 83.1721 33.5964V33.5753C83.1721 32.9078 83.3372 32.3352 83.6674 31.8574C83.9977 31.3796 84.4754 31.0037 85.1008 30.7297C85.7261 30.4486 86.485 30.2835 87.3773 30.2343L91.5931 29.9814V31.5939L87.6829 31.8363C86.9452 31.8785 86.3901 32.0436 86.0177 32.3317C85.6523 32.6127 85.4697 32.9992 85.4697 33.491V33.5121C85.4697 34.025 85.6629 34.4255 86.0493 34.7136C86.4358 35.0016 86.9346 35.1457 87.5459 35.1457C88.101 35.1457 88.5928 35.0333 89.0214 34.8084C89.4571 34.5836 89.8014 34.2779 90.0543 33.8915C90.3073 33.505 90.4337 33.0694 90.4337 32.5846V29.1277C90.4337 28.5094 90.2405 28.0316 89.8541 27.6943C89.4676 27.35 88.9055 27.1779 88.1678 27.1779C87.5213 27.1779 86.9979 27.3044 86.5974 27.5573C86.1969 27.8032 85.9369 28.137 85.8175 28.5585L85.7964 28.6218H83.6253L83.6358 28.5269C83.7061 27.8946 83.9379 27.336 84.3314 26.8512C84.7249 26.3593 85.2518 25.9764 85.9123 25.7024C86.5798 25.4213 87.3562 25.2808 88.2415 25.2808C89.1831 25.2808 89.984 25.4354 90.6445 25.7445C91.312 26.0466 91.8249 26.4788 92.1833 27.0409C92.5416 27.5959 92.7208 28.2599 92.7208 29.0328V36.7793H90.4337V35.1035H90.3178C90.1 35.49 89.8189 35.8237 89.4746 36.1048C89.1374 36.3858 88.7509 36.6036 88.3153 36.7582C87.8867 36.9058 87.423 36.9795 86.9241 36.9795ZM98.7291 36.9163C97.5487 36.9163 96.6845 36.6739 96.1364 36.1891C95.5884 35.7043 95.3143 34.9103 95.3143 33.8072V27.3149H93.6175V25.5021H95.3143V22.6143H97.6541V25.5021H99.9411V27.3149H97.6541V33.4488C97.6541 34.039 97.777 34.4571 98.023 34.703C98.2759 34.9419 98.6659 35.0614 99.1928 35.0614C99.3404 35.0614 99.4704 35.0579 99.5828 35.0508C99.6952 35.0368 99.8147 35.0262 99.9411 35.0192V36.8109C99.7795 36.839 99.5933 36.8636 99.3825 36.8847C99.1788 36.9058 98.961 36.9163 98.7291 36.9163ZM101.439 36.7793V25.5021H103.726V36.7793H101.439ZM102.587 23.6156C102.208 23.6156 101.881 23.4821 101.607 23.2151C101.333 22.941 101.196 22.6143 101.196 22.2349C101.196 21.8555 101.333 21.5323 101.607 21.2653C101.881 20.9983 102.208 20.8648 102.587 20.8648C102.974 20.8648 103.301 20.9983 103.568 21.2653C103.842 21.5323 103.979 21.8555 103.979 22.2349C103.979 22.6143 103.842 22.941 103.568 23.2151C103.301 23.4821 102.974 23.6156 102.587 23.6156ZM108.933 36.9795C108.202 36.9795 107.556 36.839 106.994 36.558C106.432 36.2769 105.989 35.8834 105.666 35.3776C105.343 34.8646 105.181 34.2709 105.181 33.5964V33.5753C105.181 32.9078 105.346 32.3352 105.676 31.8574C106.007 31.3796 106.484 31.0037 107.11 30.7297C107.735 30.4486 108.494 30.2835 109.386 30.2343L113.602 29.9814V31.5939L109.692 31.8363C108.954 31.8785 108.399 32.0436 108.027 32.3317C107.661 32.6127 107.479 32.9992 107.479 33.491V33.5121C107.479 34.025 107.672 34.4255 108.058 34.7136C108.445 35.0016 108.943 35.1457 109.555 35.1457C110.11 35.1457 110.602 35.0333 111.03 34.8084C111.466 34.5836 111.81 34.2779 112.063 33.8915C112.316 33.505 112.443 33.0694 112.443 32.5846V29.1277C112.443 28.5094 112.249 28.0316 111.863 27.6943C111.476 27.35 110.914 27.1779 110.177 27.1779C109.53 27.1779 109.007 27.3044 108.606 27.5573C108.206 27.8032 107.946 28.137 107.826 28.5585L107.805 28.6218H105.634L105.645 28.5269C105.715 27.8946 105.947 27.336 106.34 26.8512C106.734 26.3593 107.261 25.9764 107.921 25.7024C108.589 25.4213 109.365 25.2808 110.25 25.2808C111.192 25.2808 111.993 25.4354 112.653 25.7445C113.321 26.0466 113.834 26.4788 114.192 27.0409C114.55 27.5959 114.73 28.2599 114.73 29.0328V36.7793H112.443V35.1035H112.327C112.109 35.49 111.828 35.8237 111.483 36.1048C111.146 36.3858 110.76 36.6036 110.324 36.7582C109.896 36.9058 109.432 36.9795 108.933 36.9795ZM116.712 36.7793V21.1809H118.999V36.7793H116.712ZM122.583 36.9374C122.176 36.9374 121.828 36.7969 121.54 36.5158C121.259 36.2277 121.118 35.8799 121.118 35.4724C121.118 35.0579 121.259 34.7101 121.54 34.429C121.828 34.148 122.176 34.0074 122.583 34.0074C123.005 34.0074 123.356 34.148 123.637 34.429C123.918 34.7101 124.059 35.0579 124.059 35.4724C124.059 35.8799 123.918 36.2277 123.637 36.5158C123.356 36.7969 123.005 36.9374 122.583 36.9374Z" fill="#16181A" style="fill:#16181A;fill:color(display-p3 0.0863 0.0941 0.1020);fill-opacity:1;"/>
</svg>
